<?xml version="1.0" encoding="UTF-8" standalone="no"?>
<svg
   xmlns:dc="http://purl.org/dc/elements/1.1/"
   xmlns:cc="http://creativecommons.org/ns#"
   xmlns:rdf="http://www.w3.org/1999/02/22-rdf-syntax-ns#"
   xmlns:svg="http://www.w3.org/2000/svg"
   xmlns="http://www.w3.org/2000/svg"
   xmlns:sodipodi="http://sodipodi.sourceforge.net/DTD/sodipodi-0.dtd"
   xmlns:inkscape="http://www.inkscape.org/namespaces/inkscape"
   width="129.70056mm"
   height="129.77292mm"
   viewBox="0 0 129.70056 129.77292"
   version="1.1"
   id="svg8"
   inkscape:version="1.0.2 (394de47547, 2021-03-26)"
   sodipodi:docname="icon.svg">
  <defs
     id="defs2" />
  <sodipodi:namedview
     id="base"
     pagecolor="#ffffff"
     bordercolor="#666666"
     borderopacity="1.0"
     inkscape:pageopacity="0.0"
     inkscape:pageshadow="2"
     inkscape:zoom="4.957766"
     inkscape:cx="256.06978"
     inkscape:cy="86.178561"
     inkscape:document-units="mm"
     inkscape:current-layer="layer1"
     inkscape:document-rotation="0"
     showgrid="false"
     fit-margin-top="5"
     fit-margin-left="5"
     fit-margin-right="5"
     fit-margin-bottom="5"
     lock-margins="true"
     inkscape:window-width="1920"
     inkscape:window-height="1016"
     inkscape:window-x="0"
     inkscape:window-y="27"
     inkscape:window-maximized="1" />
  <metadata
     id="metadata5">
    <rdf:RDF>
      <cc:Work
         rdf:about="">
        <dc:format>image/svg+xml</dc:format>
        <dc:type
           rdf:resource="http://purl.org/dc/dcmitype/StillImage" />
        <dc:title></dc:title>
      </cc:Work>
    </rdf:RDF>
  </metadata>
  <g
     inkscape:label="Calque 1"
     inkscape:groupmode="layer"
     id="layer1"
     transform="translate(42.328626,-62.959318)">
    <path
       style="fill:#000000;stroke-width:0.264583"
       d="m 25.23599,176.65442 v -11.0778 h 14.66655 c 13.73744,0 14.67557,-0.0293 14.80909,-0.46302 0.0784,-0.25466 0.49383,-2.1299 0.92316,-4.16719 0.42933,-2.03729 1.30998,-5.99612 1.957,-8.79739 l 1.17641,-5.09323 H 45.57397 c -7.25683,0 -13.19423,-0.0487 -13.19423,-0.10816 0,-0.0595 0.98978,-1.10914 2.1995,-2.33256 6.88998,-6.96798 12.00132,-19.49696 14.1731,-34.74128 0.58978,-4.13981 0.73463,-5.97133 0.97767,-12.361241 l 0.16856,-5.527804 H 39.4059 28.91323 15.47334 4.8765379 -5.7202601 l 0,4.497194 c 0,19.541611 6.02995702,38.665631 15.17465,48.126451 l 2.3656201,2.4474 H -1.4480411 c -7.297431,0 -13.2680529,0.0633 -13.2680529,0.14057 0,0.0773 0.703265,3.32177 1.562812,7.2099 0.859546,3.88812 1.760635,7.99205 2.002422,9.11984 l 0.439611,2.05052 H 4.2196619 19.15057 v 10.98021 10.98021 h -1.22281 c -0.67255,0 -2.48825,-0.18395 -4.0349,-0.40877 -24.428304,-3.55096 -44.062632,-21.51372 -49.874821,-45.62873 -1.103583,-4.57881 -1.336892,-6.91685 -1.346519,-13.49375 -0.01371,-9.36264 0.932376,-14.53913 4.124498,-22.56722 8.061119,-20.27346 27.3949539,-34.950827 49.045122,-37.232822 3.62921,-0.38253 10.75742,-0.309221 14.30063,0.147074 12.20339,1.57155 23.83929,7.072826 33.13806,15.667163 3.67007,3.392044 8.96857,9.943422 10.75176,13.294127 3.4326,6.450008 4.73117,9.510198 6.06797,14.299728 4.10694,14.7144 2.63449,29.50343 -4.31628,43.35189 -4.76161,9.48687 -12.64217,18.08224 -21.74604,23.71852 -7.50372,4.64563 -17.44209,8.08372 -25.22937,8.7279 -1.16417,0.0963 -2.44409,0.20771 -2.84428,0.24758 l -0.7276,0.0725 z M -7.9242211,161.9386 c -0.06519,-0.10914 -0.263112,-0.91281 -0.439833,-1.78594 -0.17672,-0.87312 -0.725723,-3.28765 -1.220007,-5.36563 -0.4942839,-2.07797 -0.8986989,-3.95666 -0.8986989,-4.17486 0,-0.33632 0.5329809,-0.3855 3.4999529,-0.32292 l 3.499951,0.0738 0.204525,1.32292 c 0.112488,0.7276 0.492218,2.93026 0.843846,4.89479 0.351629,1.96453 0.714071,4.01836 0.805432,4.56406 l 0.166105,0.99219 h -3.171375 c -1.744255,0 -3.22471,-0.0893 -3.289898,-0.19844 z m 8.42322202,-2.24896 c -1.244629,-6.76466 -1.63746402,-9.18995 -1.50929202,-9.31813 0.0774,-0.0774 2.267744,-0.14072 4.867432,-0.14072 3.545226,0 4.754709,0.0827 4.838739,0.33073 0.0616,0.1819 0.29938,2.35479 0.52837,4.82864 0.22898,2.47386 0.486,5.00393 0.57116,5.6224 l 0.15483,1.12448 H 5.4497679 0.94929792 Z M 12.15248,161.54172 c -0.12716,-0.58677 -0.93941,-9.98547 -0.93941,-10.87009 0,-0.41301 0.36008,-0.44823 3.90261,-0.38177 l 3.9026,0.0732 0.0712,5.88698 0.0712,5.88698 h -3.43961 c -3.35238,0 -3.44287,-0.0151 -3.56861,-0.59532 z m 13.08351,-5.35013 v -5.9608 h 4.0078 4.00781 l -0.18548,2.44739 c -0.10201,1.34607 -0.32948,3.99521 -0.50548,5.88698 l -0.32001,3.43959 -3.50232,0.0738 -3.50232,0.0738 z m 9.52381,4.68868 c -5.3e-4,-0.69123 0.19812,-3.37013 0.44172,-5.95313 l 0.44291,-4.69635 h 4.83433 c 2.65889,0 4.8861,0.0893 4.94937,0.19843 0.0822,0.14177 -1.2567,8.24757 -1.92291,11.64167 -0.007,0.0364 -1.97751,0.0661 -4.3786,0.0661 h -4.36563 l -10e-4,-1.25677 z m 11.11369,1.13791 c 0,-0.0654 0.23209,-1.3453 0.51575,-2.84428 0.28365,-1.49897 0.7081,-3.91603 0.94321,-5.37124 0.23512,-1.45521 0.48731,-2.85419 0.56043,-3.10885 0.11705,-0.40768 0.51031,-0.46302 3.29011,-0.46302 2.49607,0 3.15717,0.0759 3.15717,0.3623 0,0.19926 -0.53578,2.84076 -1.19063,5.87 -0.65484,3.02924 -1.19062,5.54511 -1.19062,5.59083 0,0.0457 -1.36922,0.0831 -3.04271,0.0831 -1.67349,0 -3.04271,-0.0535 -3.04271,-0.11886 z M 18.37897,141.89486 c -1.35498,-3.6215 -2.99348,-11.46842 -3.97746,-19.04845 -0.57805,-4.45294 -1.58632,-20.50721 -1.59937,-25.466152 -0.002,-0.584375 0.0568,-0.595313 3.17343,-0.595313 h 3.175 v 23.283345 c 0,12.80583 -0.051,23.28333 -0.11328,23.28333 -0.0623,0 -0.35855,-0.65554 -0.65832,-1.45676 z m 6.88226,-22.1573 -0.0252,-22.952615 h 2.91042 2.91041 l -0.002,3.373435 c -0.004,6.24969 -0.97321,19.58374 -1.86954,25.73074 -0.78871,5.40891 -1.99131,11.06271 -2.99635,14.08676 l -0.90209,2.71428 -0.0252,-22.9526 z M 13.35707,139.07861 C 8.9542299,130.01892 6.2547899,116.82408 5.5029099,100.68755 l -0.18184,-3.902605 h 2.152253 2.152247 l 0.006,1.521354 c 0.0127,3.321041 0.5511601,12.969671 1.0594201,18.983861 0.71348,8.44255 2.08047,16.91664 3.5423,21.95899 0.37365,1.28884 0.62884,2.39388 0.56708,2.45563 -0.0617,0.0618 -0.71115,-1.12002 -1.44312,-2.62617 z m -3.7968901,0.89957 c -6.739788,-8.88023 -11.136973,-23.42902 -11.995032,-39.68751 l -0.185021,-3.505725 h 2.39046802 2.39046798 l 0.15403,2.315104 c 0.08472,1.273311 0.22555,3.981981 0.312963,6.019271 0.527063,12.28411 3.952764,27.79779 7.8061441,35.35104 0.72922,1.4294 0.47629,1.28697 -0.8740201,-0.49218 z m 19.6445601,1.40629 c 0,-0.0633 0.11188,-0.40933 0.24862,-0.76899 0.43401,-1.14154 2.07099,-8.90698 2.63027,-12.4774 1.14008,-7.27814 2.147,-20.02361 2.14775,-27.18595 l 4.4e-4,-4.167185 h 2.15798 2.15798 l -0.18052,4.828645 c -0.4373,11.69693 -2.3437,23.05239 -5.32484,31.71722 -1.23828,3.59913 -3.83768,9.05417 -3.83768,8.05366 z m 4.23333,-0.52453 c 0,-0.0964 0.22512,-0.61698 0.50026,-1.15688 3.97453,-7.79911 7.10344,-23.35509 7.60806,-37.82488 l 0.17762,-5.093235 h 2.48475 2.48476 l -0.13837,1.521354 c -0.0761,0.836745 -0.21069,2.831041 -0.29908,4.431771 -0.5668,10.26453 -3.60883,22.49137 -7.55039,30.34727 -1.67239,3.33325 -5.26761,8.63951 -5.26761,7.7746 z"
       id="path24"
       sodipodi:nodetypes="ccsssscssssscsccccsscsssscccccscsssssssssssscccsssccssscsccssscsscccscsscccsccccccsscccccscsscsccccsssssssscccscscssccccccssccccsccccsscccsscccsssssssscccsssssscccssss" />
  </g>
</svg>
